<svg xmlns="http://www.w3.org/2000/svg" version="1.1" xmlns:xlink="http://www.w3.org/1999/xlink" xmlns:svgjs="http://svgjs.dev/svgjs" width="1500" height="1500" viewBox="0 0 1500 1500"><rect width="1500" height="1500" fill="#000000"></rect><g transform="matrix(0.6666666666666666,0,0,0.6666666666666666,249.39393939393938,630.280620033422)"><svg viewBox="0 0 396 95" data-background-color="#ffffff" preserveAspectRatio="xMidYMid meet" height="359" width="1500" xmlns="http://www.w3.org/2000/svg" xmlns:xlink="http://www.w3.org/1999/xlink"><g id="tight-bounds" transform="matrix(1,0,0,1,0.2400000000000091,0.020923802889598164)"><svg viewBox="0 0 395.52 94.95815239422082" height="94.95815239422082" width="395.52"><g><svg viewBox="0 0 535.7438132964744 128.62369201877934" height="94.95815239422082" width="395.52"><g transform="matrix(1,0,0,1,140.22381329647448,39.746587793427224)"><svg viewBox="0 0 395.52 49.13051643192488" height="49.13051643192488" width="395.52"><g id="textblocktransform"><svg viewBox="0 0 395.52 49.13051643192488" height="49.13051643192488" width="395.52" id="textblock"><g><svg viewBox="0 0 395.52 49.13051643192488" height="49.13051643192488" width="395.52"><g transform="matrix(1,0,0,1,0,0)"><svg width="395.52" viewBox="4.49 -36.01 374.39 46.51" height="49.13051643192488" data-palette-color="#755bb4"><path d="M24.05 0L22.56 0 9.5-25.66 9.5 0 4.49 0 4.49-35.01 9.96-35.01 23.29-8.64 36.65-35.01 42.09-35.01 42.09 0 37.11 0 37.11-25.66 24.05 0ZM72.6-21.19L72.6-10.55 55.39-10.55 55.39-4.81 72.6-4.81 72.6 0 55.39 0Q54.42 0 53.54-0.38 52.66-0.76 52.01-1.4 51.36-2.05 50.99-2.93 50.61-3.81 50.61-4.81L50.61-4.81 50.61-21.19Q50.61-22.19 50.99-23.07 51.36-23.95 52.01-24.6 52.66-25.24 53.54-25.62 54.42-26 55.39-26L55.39-26 67.8-26Q68.8-26 69.68-25.62 70.55-25.24 71.2-24.6 71.85-23.95 72.23-23.07 72.6-22.19 72.6-21.19L72.6-21.19ZM67.8-21.19L55.39-21.19 55.39-15.36 67.8-15.36 67.8-21.19ZM57.15-30.49L62.69-36.01 69.99-36.01 61.77-30.49 57.15-30.49ZM79.1-21.19L79.1-26 85.44-26 85.44-34.01 90.25-34.01 90.25-26 98.8-26 98.8-21.19 90.25-21.19 90.25-4.81 98.8-4.81 98.8 0 90.25 0Q89.28 0 88.4-0.38 87.52-0.76 86.86-1.4 86.2-2.05 85.82-2.93 85.44-3.81 85.44-4.81L85.44-4.81 85.44-21.19 79.1-21.19ZM128.8-21.19L128.8-10.55 111.59-10.55 111.59-4.81 128.8-4.81 128.8 0 111.59 0Q110.61 0 109.73-0.38 108.85-0.76 108.21-1.4 107.56-2.05 107.18-2.93 106.8-3.81 106.8-4.81L106.8-4.81 106.8-21.19Q106.8-22.19 107.18-23.07 107.56-23.95 108.21-24.6 108.85-25.24 109.73-25.62 110.61-26 111.59-26L111.59-26 123.99-26Q124.99-26 125.87-25.62 126.75-25.24 127.4-24.6 128.04-23.95 128.42-23.07 128.8-22.19 128.8-21.19L128.8-21.19ZM123.99-21.19L111.59-21.19 111.59-15.36 123.99-15.36 123.99-21.19ZM113.35-30.49L118.89-36.01 126.19-36.01 117.96-30.49 113.35-30.49ZM159.29-21.19L159.29-4.81Q159.29-3.81 158.91-2.93 158.53-2.05 157.89-1.4 157.24-0.76 156.37-0.38 155.51 0 154.51 0L154.51 0 141.59 0Q140.62 0 139.74-0.38 138.86-0.76 138.21-1.4 137.56-2.05 137.18-2.93 136.81-3.81 136.81-4.81L136.81-4.81 136.81-21.19Q136.81-22.19 137.18-23.07 137.56-23.95 138.21-24.6 138.86-25.24 139.74-25.62 140.62-26 141.59-26L141.59-26 154.51-26Q155.51-26 156.37-25.62 157.24-25.24 157.89-24.6 158.53-23.95 158.91-23.07 159.29-22.19 159.29-21.19L159.29-21.19ZM154.51-21.19L141.59-21.19 141.59-4.81 154.51-4.81 154.51-21.19ZM182.77 0L182.77-35.01 208.29-35.01 208.29-30 187.78-30 187.78-20 205.28-20 205.28-14.99 187.78-14.99 187.78-5 208.29-5 208.29 0 182.77 0ZM232.14-26L237.95-26 228.5-13.31 238.39 0 232.58 0 225.59-9.4 218.59 0 212.78 0 222.69-13.31 213.24-26 219.03-26 225.59-17.21 232.14-26ZM266.87-21.19L266.87-4.81Q266.87-3.81 266.5-2.93 266.12-2.05 265.47-1.4 264.82-0.76 263.94-0.38 263.07 0 262.06 0L262.06 0 248.66 0 248.66 10.5 243.88 10.5 243.88-26 248.66-26 248.66-21.61Q248.73-22.53 249.15-23.33 249.56-24.12 250.2-24.72 250.83-25.32 251.68-25.66 252.52-26 253.47-26L253.47-26 262.06-26Q263.07-26 263.94-25.62 264.82-25.24 265.47-24.6 266.12-23.95 266.5-23.07 266.87-22.19 266.87-21.19L266.87-21.19ZM248.66-4.81L262.06-4.81 262.06-21.19 248.66-21.19 248.66-4.81ZM289.58-21.19L279.67-21.19 279.67 0 274.88 0 274.88-26 279.67-26 279.67-21.41Q279.71-22.36 280.1-23.21 280.5-24.05 281.14-24.67 281.79-25.29 282.64-25.65 283.5-26 284.47-26L284.47-26 289.58-26Q290.58-26 291.44-25.62 292.31-25.24 292.97-24.6 293.63-23.95 294.01-23.07 294.39-22.19 294.39-21.19L294.39-21.19 294.39-16.8 289.58-16.8 289.58-21.19ZM322.36-21.19L322.36-10.55 305.15-10.55 305.15-4.81 322.36-4.81 322.36 0 305.15 0Q304.17 0 303.3-0.38 302.42-0.76 301.77-1.4 301.12-2.05 300.74-2.93 300.37-3.81 300.37-4.81L300.37-4.81 300.37-21.19Q300.37-22.19 300.74-23.07 301.12-23.95 301.77-24.6 302.42-25.24 303.3-25.62 304.17-26 305.15-26L305.15-26 317.55-26Q318.55-26 319.43-25.62 320.31-25.24 320.96-24.6 321.61-23.95 321.98-23.07 322.36-22.19 322.36-21.19L322.36-21.19ZM317.55-21.19L305.15-21.19 305.15-15.36 317.55-15.36 317.55-21.19ZM329.86-4.81L346.07-4.81 346.07-10.84 334.66-10.84Q333.66-10.84 332.79-11.22 331.91-11.6 331.26-12.24 330.61-12.89 330.23-13.77 329.86-14.65 329.86-15.65L329.86-15.65 329.86-21.19Q329.86-22.19 330.23-23.07 330.61-23.95 331.26-24.6 331.91-25.24 332.79-25.62 333.66-26 334.66-26L334.66-26 349.87-26 349.87-21.19 334.66-21.19 334.66-15.65 346.07-15.65Q347.07-15.65 347.93-15.27 348.8-14.89 349.46-14.25 350.12-13.6 350.5-12.72 350.88-11.84 350.88-10.84L350.88-10.84 350.88-4.81Q350.88-3.81 350.5-2.93 350.12-2.05 349.46-1.4 348.8-0.76 347.93-0.38 347.07 0 346.07 0L346.07 0 329.86 0 329.86-4.81ZM357.86-4.81L374.07-4.81 374.07-10.84 362.67-10.84Q361.66-10.84 360.79-11.22 359.91-11.6 359.26-12.24 358.61-12.89 358.23-13.77 357.86-14.65 357.86-15.65L357.86-15.65 357.86-21.19Q357.86-22.19 358.23-23.07 358.61-23.95 359.26-24.6 359.91-25.24 360.79-25.62 361.66-26 362.67-26L362.67-26 377.88-26 377.88-21.19 362.67-21.19 362.67-15.65 374.07-15.65Q375.07-15.65 375.93-15.27 376.8-14.89 377.46-14.25 378.12-13.6 378.5-12.72 378.88-11.84 378.88-10.84L378.88-10.84 378.88-4.81Q378.88-3.81 378.5-2.93 378.12-2.05 377.46-1.4 376.8-0.76 375.93-0.38 375.07 0 374.07 0L374.07 0 357.86 0 357.86-4.81Z" opacity="1" transform="matrix(1,0,0,1,0,0)" fill="#ffffff" class="wordmark-text-0" data-fill-palette-color="primary" id="text-0"></path></svg></g></svg></g></svg></g></svg></g><g><svg viewBox="0 0 128.62527749929137 128.62369201877934" height="128.62369201877934" width="128.62527749929137"><g><svg xmlns="http://www.w3.org/2000/svg" xmlns:xlink="http://www.w3.org/1999/xlink" version="1.1" x="0" y="0" viewBox="9.646 9.62 81.127 81.12599999999999" enable-background="new 0 0 100 100" xml:space="preserve" height="128.62369201877934" width="128.62527749929137" class="icon-icon-0" data-fill-palette-color="accent" id="icon-0"><g fill="#755bb4" data-fill-palette-color="accent"><path d="M50.209 26.437C37.116 26.437 26.463 37.09 26.463 50.184S37.115 73.929 50.209 73.929 73.954 63.278 73.954 50.184 63.303 26.437 50.209 26.437" fill="#ffffff" data-fill-palette-color="accent"></path><path d="M80.527 56.869C80.552 56.681 80.58 56.494 80.607 56.307L80.759 55.701C82.166 50.184 90.773 50.184 90.773 50.184S82.199 50.184 80.777 44.758C80.728 44.574 80.683 44.393 80.636 44.21 80.607 44.003 80.576 43.797 80.546 43.59 79.733 37.953 87.685 34.66 87.685 34.66S79.763 37.941 76.374 33.473C76.257 33.319 76.144 33.165 76.028 33.011 75.923 32.833 75.817 32.657 75.712 32.482 72.806 27.586 78.892 21.5 78.892 21.5S72.829 27.562 67.988 24.731L67.518 24.456C67.345 24.327 67.172 24.199 66.999 24.068 62.438 20.658 65.731 12.707 65.731 12.707S62.45 20.629 56.894 19.865C56.711 19.841 56.525 19.814 56.338 19.789L55.726 19.632C50.21 18.227 50.21 9.62 50.21 9.62S50.21 18.193 44.785 19.615L44.24 19.756 43.616 19.846C37.98 20.658 34.686 12.707 34.686 12.707S37.968 20.629 33.499 24.018L33.05 24.358C32.867 24.465 32.686 24.574 32.509 24.678 27.613 27.586 21.527 21.5 21.527 21.5S27.589 27.562 24.759 32.404L24.458 32.908C24.337 33.072 24.214 33.234 24.095 33.393 20.685 37.953 12.734 34.66 12.734 34.66S20.656 37.941 19.892 43.496C19.867 43.684 19.839 43.87 19.813 44.057 19.761 44.26 19.71 44.462 19.66 44.665 18.254 50.182 9.646 50.182 9.646 50.182S18.22 50.184 19.642 55.609L19.783 56.165C19.814 56.369 19.844 56.571 19.873 56.776 20.685 62.412 12.734 65.706 12.734 65.706S20.656 62.426 24.045 66.894L24.389 67.353 24.705 67.885C27.613 72.781 21.527 78.865 21.527 78.865S27.589 72.803 32.43 75.636C32.597 75.734 32.762 75.831 32.929 75.931L33.419 76.296C37.98 79.708 34.686 87.659 34.686 87.659S37.968 79.738 43.523 80.501C43.709 80.526 43.892 80.553 44.078 80.579L44.692 80.734C50.21 82.139 50.21 90.746 50.21 90.746S50.21 82.172 55.635 80.751L56.184 80.61C56.391 80.581 56.596 80.55 56.804 80.52 62.44 79.708 65.733 87.659 65.733 87.659S62.452 79.738 66.921 76.348C67.071 76.233 67.224 76.121 67.376 76.006L67.911 75.688C72.807 72.781 78.893 78.866 78.893 78.866S72.83 72.804 75.661 67.962L75.95 67.476 76.325 66.973C79.734 62.413 87.686 65.706 87.686 65.706S79.764 62.425 80.527 56.869M50.209 76.399C35.754 76.399 23.994 64.638 23.994 50.183S35.754 23.967 50.209 23.967 76.425 35.728 76.425 50.183 64.664 76.399 50.209 76.399" fill="#ffffff" data-fill-palette-color="accent"></path></g></svg></g></svg></g></svg></g><defs></defs></svg><rect width="395.52" height="94.95815239422082" fill="none" stroke="none" visibility="hidden"></rect></g></svg></g></svg>